<?xml version="1.0" standalone="no"?>
<!DOCTYPE svg PUBLIC "-//W3C//DTD SVG 20010904//EN"
 "http://www.w3.org/TR/2001/REC-SVG-20010904/DTD/svg10.dtd">
<svg version="1.0" xmlns="http://www.w3.org/2000/svg"
 width="505.000000pt" height="505.000000pt" viewBox="0 0 505.000000 505.000000"
 preserveAspectRatio="xMidYMid meet">
<metadata>
Created by potrace 1.11, written by Peter Selinger 2001-2013
</metadata>
<g transform="translate(0.000000,505.000000) scale(0.100000,-0.100000)"
fill="#000000" stroke="none">
<path d="M2506 5028 c-9 -12 -16 -31 -16 -42 0 -10 102 -178 226 -373 125
-195 224 -356 222 -359 -3 -2 -192 -3 -421 -2 l-416 3 170 249 c178 263 192
292 151 329 -27 24 -75 21 -99 -5 -11 -13 -172 -247 -357 -522 -270 -401 -336
-505 -336 -531 0 -26 70 -141 335 -551 185 -286 345 -531 356 -546 39 -55 129
-29 129 37 0 11 -79 143 -175 293 -96 150 -175 274 -175 277 0 3 187 5 415 5
228 0 415 -3 415 -6 0 -3 -292 -442 -650 -975 -446 -666 -650 -978 -650 -996
0 -17 114 -202 336 -547 185 -287 347 -536 361 -554 18 -24 31 -32 56 -32 18
0 37 4 43 8 20 13 35 52 29 73 -4 11 -82 138 -174 282 -92 144 -171 268 -175
274 -6 10 80 13 414 13 l421 0 -246 -367 c-195 -292 -245 -373 -245 -399 0
-40 29 -64 77 -64 33 0 40 10 463 645 267 401 430 654 430 669 0 15 -108 188
-277 443 -152 230 -313 475 -358 544 -46 69 -90 129 -100 132 -9 4 -30 7 -46
7 -34 0 -64 -38 -57 -73 2 -12 84 -147 181 -299 97 -153 177 -280 177 -283 0
-3 -189 -5 -420 -5 -231 0 -420 2 -420 5 0 3 293 442 650 975 361 537 653 983
656 1000 5 23 2 37 -13 53 -11 12 -192 292 -403 622 -210 330 -387 603 -394
607 -24 16 -75 8 -90 -14z m636 -1095 l109 -171 -113 -171 -113 -170 -512 -1
-512 0 -37 58 c-21 31 -72 111 -114 177 l-76 120 114 168 113 167 516 -2 516
-3 109 -172z m0 -2457 l109 -169 -116 -174 -116 -173 -513 0 -513 0 -107 165
c-58 91 -106 170 -106 176 0 6 52 87 116 180 l115 169 511 -2 510 -3 110 -169z"/>
</g>
</svg>
