<?xml version="1.0" encoding="utf-8"?>
<!-- Generator: Adobe Illustrator 18.1.1, SVG Export Plug-In . SVG Version: 6.00 Build 0)  -->
<svg version="1.1" id="Слой_1" xmlns="http://www.w3.org/2000/svg" xmlns:xlink="http://www.w3.org/1999/xlink" x="0px" y="0px"
	 viewBox="0 0 43.4 43.4" enable-background="new 0 0 43.4 43.4" xml:space="preserve">
<g>
	<circle id="XMLID_108_" fill="#2797CF" cx="21.7" cy="21.7" r="21.7"/>
	<g>
		<polygon id="XMLID_106_" fill="#FFFFFF" points="9.4,20.9 9.4,33.4 15.4,33.4 15.4,19.8 15.4,16.3 9.4,16.3 		"/>
		<circle id="XMLID_105_" fill="#FFFFFF" cx="12.4" cy="10.7" r="3"/>
		<path id="XMLID_104_" fill="#FFFFFF" d="M35,21.6c-0.4-3.2-1.9-5.3-6.3-5.3c-2.6,0-4.3,1-5,2.3h-0.1v-2.3h-4.8v3.3v13.8h5V25
			c0-2.2,0.4-4.4,3.2-4.4c2.7,0,2.9,2.6,2.9,4.6v8.3h5.1V24h0C35.1,23.2,35.1,22.3,35,21.6z"/>
	</g>
</g>
</svg>
