<?xml version="1.0" encoding="utf-8"?>
<!-- Generator: Adobe Illustrator 18.1.1, SVG Export Plug-In . SVG Version: 6.00 Build 0)  -->
<svg version="1.1" id="Слой_1" xmlns="http://www.w3.org/2000/svg" xmlns:xlink="http://www.w3.org/1999/xlink" x="0px" y="0px"
	 viewBox="0 0 27.8 27.8" enable-background="new 0 0 27.8 27.8" xml:space="preserve">
<path fill="#101E39" d="M2.1,27.4L27.4,2.1c0.5-0.5,0.5-1.3,0-1.7l0,0c-0.5-0.5-1.3-0.5-1.7,0L0.4,25.7c-0.5,0.5-0.5,1.3,0,1.7l0,0
	C0.8,27.9,1.6,27.9,2.1,27.4z"/>
<path fill="#101E39" d="M27.4,25.7L2.2,0.4c-0.5-0.5-1.3-0.5-1.7,0l0,0c-0.5,0.5-0.5,1.3,0,1.7l25.3,25.3c0.5,0.5,1.3,0.5,1.7,0l0,0
	C27.9,26.9,27.9,26.2,27.4,25.7z"/>
</svg>
