<?xml version="1.0" encoding="utf-8"?>
<!-- Generator: Adobe Illustrator 18.1.1, SVG Export Plug-In . SVG Version: 6.00 Build 0)  -->
<svg version="1.1" id="Слой_1" xmlns="http://www.w3.org/2000/svg" xmlns:xlink="http://www.w3.org/1999/xlink" x="0px" y="0px"
	 viewBox="0 0 36.8 36.8" enable-background="new 0 0 36.8 36.8" xml:space="preserve">
<g>
	<path fill="#ED5A60" d="M18.4,36.8c-4.9,0-9.5-1.9-13-5.4c-7.2-7.2-7.2-18.8,0-26C8.9,1.9,13.5,0,18.4,0c4.9,0,9.5,1.9,13,5.4
		c7.2,7.2,7.2,18.8,0,26C27.9,34.9,23.3,36.8,18.4,36.8z M18.4,0.9c-4.7,0-9,1.8-12.3,5.1c-6.8,6.8-6.8,17.9,0,24.7
		c3.3,3.3,7.7,5.1,12.3,5.1s9-1.8,12.3-5.1c6.8-6.8,6.8-17.9,0-24.7C27.4,2.8,23,0.9,18.4,0.9z"/>
</g>
<g>
	
		<rect x="7.8" y="17.5" transform="matrix(0.7071 0.7071 -0.7071 0.7071 17.9638 -7.4357)" fill="#ED5A60" width="20.2" height="0.9"/>
</g>
<g>
	
		<rect x="17.5" y="7.8" transform="matrix(0.7071 0.7071 -0.7071 0.7071 17.9642 -7.4357)" fill="#ED5A60" width="0.9" height="20.2"/>
</g>
</svg>
