<?xml version="1.0" encoding="utf-8"?>
<!-- Generator: Adobe Illustrator 18.1.1, SVG Export Plug-In . SVG Version: 6.00 Build 0)  -->
<svg version="1.1" id="Слой_1" xmlns="http://www.w3.org/2000/svg" xmlns:xlink="http://www.w3.org/1999/xlink" x="0px" y="0px"
	 viewBox="0 0 62 61" enable-background="new 0 0 62 61" xml:space="preserve">
<symbol  id="New_Symbol_6" viewBox="-31 -31 62 61">
	<path fill="none" stroke="#FFFFFF" stroke-miterlimit="10" d="M19.4,29.5h-33.9v-60h45v49.4C26.8,22.6,23.1,26.5,19.4,29.5z"/>
	<polyline fill="none" stroke="#FFFFFF" stroke-miterlimit="10" points="-15,-30.5 -30.5,-30.5 -30.5,20.5 -15,20.5 	"/>
	<line fill="none" stroke="#FFFFFF" stroke-miterlimit="10" x1="-6" y1="12.5" x2="10" y2="12.5"/>
	<line fill="none" stroke="#FFFFFF" stroke-miterlimit="10" x1="-6" y1="5.5" x2="10" y2="5.5"/>
	<line fill="none" stroke="#FFFFFF" stroke-miterlimit="10" x1="-6" y1="-1.5" x2="10" y2="-1.5"/>
	<line fill="none" stroke="#FFFFFF" stroke-miterlimit="10" x1="-6" y1="-8.5" x2="17" y2="-8.5"/>
	<line fill="none" stroke="#FFFFFF" stroke-miterlimit="10" x1="-6" y1="-15.5" x2="17" y2="-15.5"/>
	<line fill="none" stroke="#FFFFFF" stroke-miterlimit="10" x1="-24" y1="-15.5" x2="-14" y2="-15.5"/>
	<line fill="none" stroke="#FFFFFF" stroke-miterlimit="10" x1="-24" y1="-8.5" x2="-14" y2="-8.5"/>
	<line fill="none" stroke="#FFFFFF" stroke-miterlimit="10" x1="-24" y1="-1.5" x2="-14" y2="-1.5"/>
	<line fill="none" stroke="#FFFFFF" stroke-miterlimit="10" x1="-24" y1="5.5" x2="-14" y2="5.5"/>
	<polygon display="none" fill="none" points="-31,30 31,30 31,-31 -31,-31 	"/>
</symbol>
<use xlink:href="#New_Symbol_6"  width="62" height="61" x="-31" y="-31" transform="matrix(1 0 0 -1 31 30)" overflow="visible" opacity="0.3"/>
</svg>
