<?xml version="1.0" encoding="utf-8"?>
<!-- Generator: Adobe Illustrator 18.1.1, SVG Export Plug-In . SVG Version: 6.00 Build 0)  -->
<svg version="1.1" id="Слой_1" xmlns="http://www.w3.org/2000/svg" xmlns:xlink="http://www.w3.org/1999/xlink" x="0px" y="0px"
	 viewBox="0 0 361.6 142.7" enable-background="new 0 0 361.6 142.7" xml:space="preserve">
<g>
	<g>
		<path fill="#FFFFFF" d="M95.4,58.2c2.2,3.2,4.3,6.3,6.1,9.1c0.3,0.5,0.9,0.8,1.5,0.8c0.3,0,0.7-0.1,1-0.3c0.8-0.5,1-1.6,0.5-2.5
			c-2.2-3.3-4.7-7-7.3-11c-3.1-4.7-6.4-9.5-9.1-13.7c-0.5-0.8-1.6-1.1-2.5-0.5c-0.8,0.5-1.1,1.6-0.5,2.5c2.4,3.7,5.2,7.9,8,12H72.7
			c0.4-0.6,0.8-1.2,1.2-1.7c1.6-2.3,3.2-4.6,4.8-7c2.2-3.2,4-5.8,5.6-8.3c0.5-0.8,0.3-1.9-0.5-2.5c-0.8-0.5-1.9-0.3-2.5,0.5
			c-1.6,2.5-3.4,5.1-5.6,8.2c-1.6,2.3-3.2,4.7-4.8,7c-3.2,4.6-6.5,9.4-9.7,14.2c-0.5,0.8-0.3,1.9,0.5,2.5c0.3,0.2,0.6,0.3,1,0.3
			c0.6,0,1.1-0.3,1.5-0.8c2-3,4-5.9,6-8.8H95.4z"/>
		<path fill="#FFFFFF" d="M144.2,65.5V40.2c0-1-0.8-1.8-1.8-1.8c-1,0-1.8,0.8-1.8,1.8v21.5l-27.2-22.9c-0.5-0.4-1.3-0.5-1.9-0.2
			c-0.6,0.3-1,0.9-1,1.6v26.1c0,1,0.8,1.8,1.8,1.8c1,0,1.8-0.8,1.8-1.8V44l27.2,22.9c0.5,0.4,1.3,0.5,1.9,0.2
			C143.8,66.8,144.2,66.2,144.2,65.5z"/>
		<path fill="#FFFFFF" d="M157.3,64.1c4,2.7,9.3,4.1,14.9,4.1c4.3,0,8.5-0.9,12.1-2.5c0.6-0.3,1-0.9,1-1.6V52.2c0-1-0.8-1.8-1.8-1.8
			l-7.4,0c0,0,0,0,0,0c-1,0-1.8,0.8-1.8,1.8c0,1,0.8,1.8,1.8,1.8l5.6,0v9c-2.9,1.1-6.1,1.8-9.5,1.8c-4.9,0-9.5-1.3-13-3.5
			c-3.2-2.1-5-4.9-5-7.8c0-2.9,1.8-5.6,5-7.8c3.4-2.3,8.1-3.5,13-3.5c3.8,0,7.5,0.8,10.6,2.2c0.9,0.4,1.9,0,2.4-0.9
			c0.4-0.9,0-1.9-0.9-2.4c-3.6-1.7-7.7-2.5-12-2.5c-5.6,0-10.9,1.5-14.9,4.1c-4.2,2.8-6.6,6.6-6.6,10.7S153,61.3,157.3,64.1z"/>
		<path fill="#FFFFFF" d="M219.7,42c1,0,1.8-0.8,1.8-1.8c0-1-0.8-1.8-1.8-1.8h-25c-1,0-1.8,0.8-1.8,1.8v26.2c0,1,0.8,1.8,1.8,1.8h25
			c1,0,1.8-0.8,1.8-1.8s-0.8-1.8-1.8-1.8h-23.2V55h17.3c1,0,1.8-0.8,1.8-1.8s-0.8-1.8-1.8-1.8h-17.3V42H219.7z"/>
		<path fill="#FFFFFF" d="M257,66.5c0-1-0.8-1.8-1.8-1.8h-23.6V40.3c0-1-0.8-1.8-1.8-1.8c-1,0-1.8,0.8-1.8,1.8v26.2
			c0,1,0.8,1.8,1.8,1.8h25.4C256.2,68.3,257,67.5,257,66.5z"/>
		<path fill="#FFFFFF" d="M295.8,96.8c-1.4-2.1-2.9-4.1-4.3-6.2c-1.9-2.8-3.5-5.1-5-7.3c-0.5-0.8-1.6-1-2.5-0.5
			c-0.8,0.5-1,1.6-0.5,2.5c1.5,2.2,3.1,4.6,5,7.4c1.4,2.1,2.9,4.1,4.3,6.2c0.3,0.4,0.6,0.8,0.8,1.2l-17.4,0
			c2.4-3.6,4.8-7.1,6.9-10.3c0.5-0.8,0.3-1.9-0.5-2.5c-0.8-0.5-1.9-0.3-2.5,0.5c-2.4,3.7-5.3,8-8.1,12.2c-2.4,3.5-4.6,6.8-6.5,9.8
			c-0.5,0.8-0.3,1.9,0.5,2.5c0.3,0.2,0.6,0.3,1,0.3c0.6,0,1.1-0.3,1.5-0.8c1.6-2.5,3.5-5.2,5.4-8.1l22.2,0c1.8,2.6,3.6,5.2,5.3,7.8
			c0.3,0.5,0.9,0.8,1.5,0.8c0.3,0,0.7-0.1,1-0.3c0.8-0.5,1-1.6,0.5-2.5C301.6,105.2,298.7,100.9,295.8,96.8z"/>
		<path fill="#FFFFFF" d="M175.3,82.6c-1,0-1.8,0.8-1.8,1.8v21.5L146.3,83c-0.5-0.4-1.3-0.5-1.9-0.2c-0.6,0.3-1,0.9-1,1.6v26.1
			c0,1,0.8,1.8,1.8,1.8c1,0,1.8-0.8,1.8-1.8V88.2l27.2,22.9c0.5,0.4,1.3,0.5,1.9,0.2c0.6-0.3,1-0.9,1-1.6V84.4
			C177.1,83.4,176.3,82.6,175.3,82.6z"/>
		<path fill="#FFFFFF" d="M359.9,108.8h-23.4V98.5h19.2c1,0,1.8-0.8,1.8-1.8c0-1-0.8-1.8-1.8-1.8h-19.2v-8.9h23.4
			c1,0,1.8-0.8,1.8-1.8s-0.8-1.8-1.8-1.8h-25.2c-1,0-1.8,0.8-1.8,1.8v26.2c0,1,0.8,1.8,1.8,1.8h25.2c1,0,1.8-0.8,1.8-1.8
			S360.8,108.8,359.9,108.8z"/>
		<path fill="#FFFFFF" d="M247.2,85.7c3.7,0,9.5,0.9,11.8,2.2c0.9,0.5,1.9,0.1,2.4-0.7c0.5-0.9,0.1-1.9-0.7-2.4
			c-3.3-1.8-10-2.6-13.5-2.6c-4.9,0-9.1,1.5-11.9,4.4c-2.6,2.7-4.1,6.4-4.1,10.6c0,4.2,1.5,7.9,4.1,10.6c2.9,2.9,7,4.4,11.9,4.4
			c3.5,0,10.2-0.8,13.5-2.6c0.9-0.5,1.2-1.5,0.7-2.4c-0.5-0.9-1.5-1.2-2.4-0.7c-2.3,1.2-8.1,2.2-11.8,2.2c-9.2,0-12.5-5.9-12.5-11.5
			S238,85.7,247.2,85.7z"/>
		<path fill="#FFFFFF" d="M202.1,82.2h-16.6c-1,0-1.8,0.8-1.8,1.8v26.6c0,1,0.8,1.8,1.8,1.8h16.8c8.1,0,14.7-6.6,14.7-14.7v-0.5
			C217,88.9,210.3,82.2,202.1,82.2z M213.5,97.6c0,6.2-5,11.2-11.2,11.2h-15v-23h14.8c6.3,0,11.4,5.1,11.4,11.4V97.6z"/>
		<path fill="#FFFFFF" d="M325.6,82.5H303c-1,0-1.8,0.8-1.8,1.8s0.8,1.8,1.8,1.8h9.9v24.4c0,1,0.8,1.7,1.8,1.7c1,0,1.8-0.8,1.8-1.7
			V86.1h9.2c1,0,1.8-0.8,1.8-1.8S326.6,82.5,325.6,82.5z"/>
		<path fill="#FFFFFF" d="M223.4,82.5c-1,0-1.8,0.8-1.8,1.8v26.3c0,1,0.8,1.8,1.8,1.8c1,0,1.8-0.8,1.8-1.8V84.2
			C225.2,83.3,224.4,82.5,223.4,82.5z"/>
		<path fill="#FFFFFF" d="M136.1,82.9c-0.1,0.1-9.5,10.8-13.4,15.2c-1.9-2.1-3.8-4-5.6-6c-2.7-2.9-5.6-6-8.5-9.2
			c-0.7-0.7-1.8-0.8-2.5-0.1c-0.7,0.7-0.8,1.8-0.1,2.5c3,3.2,5.8,6.3,8.5,9.2c2,2.2,4.1,4.4,6.2,6.7c0,0.1,0,0.2,0,0.4v8.7
			c0,1,0.8,1.8,1.8,1.8c1,0,1.8-0.8,1.8-1.8v-8.6c2.9-3.2,14-15.8,14.5-16.4c0.6-0.7,0.6-1.9-0.2-2.5
			C137.8,82.1,136.7,82.2,136.1,82.9z"/>
		<path fill="#FFFFFF" d="M93.9,93.1c-2.3-0.2-4.8-0.3-7.2-0.4c-10.6-0.4-18.1-1-18.2-5.9c0-0.1,0-0.3-0.1-0.4
			c0-0.1,0.1-0.3,0.1-0.4c0-3.6,6.9-7.7,16.8-7.7c5.5,0,10.8,1.3,14,3.6c0.8,0.6,1.9,0.4,2.5-0.4c0.6-0.8,0.4-1.9-0.4-2.5
			c-3.8-2.7-9.6-4.2-16-4.2C73.9,74.7,65,79.7,65,86c0,0.2,0,0.3,0.1,0.4c0,0.2-0.1,0.3-0.1,0.5c0.1,8.6,11.6,9,21.6,9.4
			c2.4,0.1,4.8,0.2,7,0.4c5.4,0.5,7.3,1.9,8,2.8c0.6,0.7,0.5,1.3,0.5,1.5c0,0.1,0,0.2,0,0.4c0,3.6-6.9,7.7-16.8,7.7
			c-9.9,0-16.8-4-16.8-7.7c0-1-0.8-1.8-1.8-1.8c-1,0-1.8,0.8-1.8,1.8c0,6.3,8.9,11.2,20.3,11.2c11.3,0,20.2-4.9,20.3-11.1
			c0.1-0.6,0.1-2.3-1.1-4C102.7,95,99.2,93.5,93.9,93.1z"/>
		<path fill="#FFFFFF" d="M49.3,34.7L27.8,0.8c-0.5-0.8-1.6-1.1-2.4-0.5c-0.8,0.5-1.1,1.6-0.5,2.4l12.8,20.1l-24.8,0l9.7-14.4
			C23,7.6,22.8,6.5,22,5.9c-0.8-0.5-1.9-0.3-2.5,0.5L0.5,34.7C0.2,35,0,35.4,0,35.8v0c0,0.4,0.2,0.8,0.4,1.2L19.7,67
			c0.3,0.5,0.9,0.8,1.5,0.8c0.3,0,0.7-0.1,1-0.3c0.8-0.5,1.1-1.6,0.5-2.5l-10-15.5l24.5,0l-14,20.9L0.3,104.6
			c-0.4,0.6-0.4,1.4,0,1.9l19.4,30.1c0.3,0.5,0.9,0.8,1.5,0.8c0.3,0,0.7-0.1,1-0.3c0.8-0.5,1.1-1.6,0.5-2.5L12.5,119l24.6,0
			l-14,20.9c-0.5,0.8-0.3,1.9,0.5,2.5c0.3,0.2,0.6,0.3,1,0.3c0.6,0,1.1-0.3,1.5-0.8l23.5-35.1c0.3-0.3,0.5-0.7,0.5-1.2v0
			c0-0.4-0.2-0.8-0.4-1.2L30.3,74.6c-0.5-0.8-1.6-1.1-2.5-0.5c-0.8,0.5-1.1,1.6-0.5,2.5l10.2,15.8l-24.6,0l13.3-19.8l23.4-34.8
			c0.2-0.2,0.3-0.4,0.4-0.6l0.1-0.2C50.3,36,50,35.1,49.3,34.7z M39.8,95.8l6.3,9.8l-6.6,9.9l-29.2,0l-6.3-9.8l6.6-9.9L39.8,95.8z
			 M39.6,46l-29.2,0L3.9,35.9l6.5-9.6l29.5,0l6.3,9.9L39.6,46z"/>
	</g>
</g>
</svg>
