<?xml version="1.0" encoding="utf-8"?>
<!-- Generator: Adobe Illustrator 18.1.1, SVG Export Plug-In . SVG Version: 6.00 Build 0)  -->
<svg version="1.1" id="Слой_1" xmlns="http://www.w3.org/2000/svg" xmlns:xlink="http://www.w3.org/1999/xlink" x="0px" y="0px"
	 viewBox="0 0 189.3 74.7" enable-background="new 0 0 189.3 74.7" xml:space="preserve">
<g>
	<g>
		<path fill="#00095C" d="M50,30.5c1.1,1.7,2.2,3.3,3.2,4.8c0.2,0.3,0.5,0.4,0.8,0.4c0.2,0,0.4,0,0.5-0.2c0.4-0.3,0.5-0.9,0.3-1.3
			c-1.1-1.8-2.5-3.7-3.8-5.7c-1.6-2.4-3.4-5-4.8-7.2c-0.3-0.4-0.9-0.6-1.3-0.3c-0.4,0.3-0.6,0.9-0.3,1.3c1.2,1.9,2.7,4.1,4.2,6.3
			H38.1c0.2-0.3,0.4-0.6,0.6-0.9c0.8-1.2,1.7-2.4,2.5-3.6c1.1-1.7,2.1-3,2.9-4.3c0.3-0.4,0.2-1-0.3-1.3c-0.4-0.3-1-0.2-1.3,0.3
			c-0.9,1.3-1.8,2.7-2.9,4.3c-0.8,1.2-1.7,2.4-2.5,3.6c-1.7,2.4-3.4,4.9-5.1,7.4c-0.3,0.4-0.2,1,0.3,1.3c0.2,0.1,0.3,0.2,0.5,0.2
			c0.3,0,0.6-0.1,0.8-0.4c1-1.5,2.1-3.1,3.1-4.6H50z"/>
		<path fill="#00095C" d="M75.5,34.3V21c0-0.5-0.4-0.9-0.9-0.9c-0.5,0-0.9,0.4-0.9,0.9v11.3l-14.3-12c-0.3-0.2-0.7-0.3-1-0.1
			c-0.3,0.2-0.5,0.5-0.5,0.8v13.7c0,0.5,0.4,0.9,0.9,0.9c0.5,0,0.9-0.4,0.9-0.9V23L74,35c0.3,0.2,0.7,0.3,1,0.1
			C75.3,35,75.5,34.7,75.5,34.3z"/>
		<path fill="#00095C" d="M82.3,33.5c2.1,1.4,4.9,2.2,7.8,2.2c2.3,0,4.4-0.5,6.3-1.3c0.3-0.2,0.5-0.5,0.5-0.8v-6.2
			c0-0.5-0.4-0.9-0.9-0.9l-3.9,0c0,0,0,0,0,0c-0.5,0-0.9,0.4-0.9,0.9c0,0.5,0.4,0.9,0.9,0.9l2.9,0v4.7c-1.5,0.6-3.2,0.9-5,0.9
			c-2.6,0-5-0.7-6.8-1.8c-1.7-1.1-2.6-2.6-2.6-4.1s0.9-2.9,2.6-4.1c1.8-1.2,4.2-1.8,6.8-1.8c2,0,3.9,0.4,5.5,1.2
			c0.5,0.2,1,0,1.2-0.5c0.2-0.5,0-1-0.5-1.2c-1.9-0.9-4-1.3-6.3-1.3c-2.9,0-5.7,0.8-7.8,2.2c-2.2,1.5-3.4,3.5-3.4,5.6
			S80.1,32.1,82.3,33.5z"/>
		<path fill="#00095C" d="M115,22c0.5,0,0.9-0.4,0.9-0.9c0-0.5-0.4-0.9-0.9-0.9h-13.1c-0.5,0-0.9,0.4-0.9,0.9v13.7
			c0,0.5,0.4,0.9,0.9,0.9H115c0.5,0,0.9-0.4,0.9-0.9s-0.4-0.9-0.9-0.9h-12.2v-5.1h9.1c0.5,0,0.9-0.4,0.9-0.9s-0.4-0.9-0.9-0.9h-9.1
			V22H115z"/>
		<path fill="#00095C" d="M134.5,34.8c0-0.5-0.4-0.9-0.9-0.9h-12.4V21.1c0-0.5-0.4-0.9-0.9-0.9c-0.5,0-0.9,0.4-0.9,0.9v13.7
			c0,0.5,0.4,0.9,0.9,0.9h13.3C134.1,35.7,134.5,35.3,134.5,34.8z"/>
		<path fill="#00095C" d="M154.8,50.7c-0.7-1.1-1.5-2.2-2.2-3.2c-1-1.5-1.8-2.7-2.6-3.8c-0.3-0.4-0.9-0.5-1.3-0.3
			c-0.4,0.3-0.5,0.9-0.3,1.3c0.8,1.2,1.6,2.4,2.6,3.9c0.7,1.1,1.5,2.2,2.2,3.3c0.1,0.2,0.3,0.4,0.4,0.6l-9.1,0
			c1.3-1.9,2.5-3.7,3.6-5.4c0.3-0.4,0.2-1-0.3-1.3c-0.4-0.3-1-0.2-1.3,0.3c-1.3,2-2.8,4.2-4.2,6.4c-1.2,1.8-2.4,3.5-3.4,5.1
			c-0.3,0.4-0.2,1,0.3,1.3c0.2,0.1,0.3,0.2,0.5,0.2c0.3,0,0.6-0.1,0.8-0.4c0.9-1.3,1.8-2.7,2.8-4.2l11.6,0c0.9,1.3,1.9,2.7,2.8,4.1
			c0.2,0.3,0.5,0.4,0.8,0.4c0.2,0,0.4-0.1,0.5-0.2c0.4-0.3,0.5-0.9,0.3-1.3C157.9,55,156.3,52.8,154.8,50.7z"/>
		<path fill="#00095C" d="M91.8,43.2c-0.5,0-0.9,0.4-0.9,0.9v11.3l-14.3-12c-0.3-0.2-0.7-0.3-1-0.1c-0.3,0.2-0.5,0.5-0.5,0.8v13.7
			c0,0.5,0.4,0.9,0.9,0.9c0.5,0,0.9-0.4,0.9-0.9V46.2l14.3,12c0.3,0.2,0.7,0.3,1,0.1c0.3-0.2,0.5-0.5,0.5-0.8V44.2
			C92.7,43.6,92.3,43.2,91.8,43.2z"/>
		<path fill="#00095C" d="M188.4,56.9h-12.3v-5.4h10.1c0.5,0,0.9-0.4,0.9-0.9s-0.4-0.9-0.9-0.9h-10.1v-4.7h12.3
			c0.5,0,0.9-0.4,0.9-0.9s-0.4-0.9-0.9-0.9h-13.2c-0.5,0-0.9,0.4-0.9,0.9v13.7c0,0.5,0.4,0.9,0.9,0.9h13.2c0.5,0,0.9-0.4,0.9-0.9
			C189.3,57.4,188.9,56.9,188.4,56.9z"/>
		<path fill="#00095C" d="M129.4,44.8c1.9,0,5,0.5,6.2,1.1c0.5,0.2,1,0.1,1.3-0.4c0.2-0.5,0.1-1-0.4-1.3c-1.7-0.9-5.2-1.4-7.1-1.4
			c-2.6,0-4.7,0.8-6.2,2.3c-1.4,1.4-2.1,3.4-2.1,5.6c0,2.2,0.8,4.2,2.1,5.6c1.5,1.5,3.7,2.3,6.2,2.3c1.8,0,5.4-0.4,7.1-1.4
			c0.5-0.2,0.6-0.8,0.4-1.3c-0.2-0.5-0.8-0.6-1.3-0.4c-1.2,0.7-4.3,1.1-6.2,1.1c-4.8,0-6.5-3.1-6.5-6
			C122.9,47.9,124.6,44.8,129.4,44.8z"/>
		<path fill="#00095C" d="M105.8,43h-8.7c-0.5,0-0.9,0.4-0.9,0.9v13.9c0,0.5,0.4,0.9,0.9,0.9h8.8c4.3,0,7.7-3.5,7.7-7.7v-0.3
			C113.6,46.5,110.1,43,105.8,43z M111.7,51.1c0,3.2-2.6,5.9-5.9,5.9H98V44.9h7.7c3.3,0,6,2.7,6,6V51.1z"/>
		<path fill="#00095C" d="M170.4,43.2h-11.8c-0.5,0-0.9,0.4-0.9,0.9s0.4,0.9,0.9,0.9h5.2v12.8c0,0.5,0.4,0.9,0.9,0.9
			c0.5,0,0.9-0.4,0.9-0.9V45.1h4.8c0.5,0,0.9-0.4,0.9-0.9S171,43.2,170.4,43.2z"/>
		<path fill="#00095C" d="M116.9,43.2c-0.5,0-0.9,0.4-0.9,0.9v13.8c0,0.5,0.4,0.9,0.9,0.9c0.5,0,0.9-0.4,0.9-0.9V44.1
			C117.9,43.6,117.4,43.2,116.9,43.2z"/>
		<path fill="#00095C" d="M71.2,43.4c-0.1,0.1-5,5.7-7,7.9c-1-1.1-2-2.1-2.9-3.1c-1.4-1.5-2.9-3.1-4.5-4.8c-0.3-0.4-0.9-0.4-1.3-0.1
			c-0.4,0.3-0.4,0.9-0.1,1.3c1.5,1.7,3,3.3,4.5,4.8c1.1,1.1,2.1,2.3,3.3,3.5c0,0.1,0,0.1,0,0.2v4.5c0,0.5,0.4,0.9,0.9,0.9
			c0.5,0,0.9-0.4,0.9-0.9v-4.5c1.5-1.7,7.3-8.3,7.6-8.6c0.3-0.4,0.3-1-0.1-1.3C72.1,43,71.6,43,71.2,43.4z"/>
		<path fill="#00095C" d="M49.2,48.7c-1.2-0.1-2.5-0.1-3.8-0.2c-5.6-0.2-9.5-0.5-9.5-3.1c0-0.1,0-0.1,0-0.2c0-0.1,0-0.2,0-0.2
			c0-1.9,3.6-4,8.8-4c2.9,0,5.6,0.7,7.3,1.9c0.4,0.3,1,0.2,1.3-0.2c0.3-0.4,0.2-1-0.2-1.3c-2-1.4-5.1-2.2-8.4-2.2
			c-6,0-10.6,2.6-10.6,5.9c0,0.1,0,0.2,0,0.2c0,0.1,0,0.2,0,0.2c0.1,4.5,6,4.7,11.3,4.9c1.2,0,2.5,0.1,3.7,0.2
			c2.8,0.2,3.8,1,4.2,1.5c0.3,0.4,0.3,0.7,0.3,0.8c0,0.1,0,0.1,0,0.2c0,1.9-3.6,4-8.8,4c-5.2,0-8.8-2.1-8.8-4c0-0.5-0.4-0.9-0.9-0.9
			c-0.5,0-0.9,0.4-0.9,0.9c0,3.3,4.7,5.9,10.6,5.9c5.9,0,10.6-2.5,10.6-5.8c0-0.3,0.1-1.2-0.6-2.1C53.8,49.7,51.9,49,49.2,48.7z"/>
		<path fill="#00095C" d="M25.8,18.1L14.5,0.4c-0.3-0.4-0.8-0.6-1.3-0.3C12.8,0.4,12.7,1,13,1.4l6.7,10.5l-13,0l5.1-7.5
			c0.3-0.4,0.2-1-0.3-1.3c-0.4-0.3-1-0.2-1.3,0.3l-10,14.8C0.1,18.3,0,18.5,0,18.8v0c0,0.2,0.1,0.4,0.2,0.6L10.3,35
			c0.2,0.3,0.5,0.4,0.8,0.4c0.2,0,0.3,0,0.5-0.1c0.4-0.3,0.6-0.9,0.3-1.3l-5.2-8.1l12.8,0l-7.3,10.9l-12,17.9c-0.2,0.3-0.2,0.7,0,1
			l10.2,15.8c0.2,0.3,0.5,0.4,0.8,0.4c0.2,0,0.3,0,0.5-0.1c0.4-0.3,0.6-0.9,0.3-1.3l-5.3-8.3l12.9,0l-7.3,10.9
			c-0.3,0.4-0.2,1,0.3,1.3c0.2,0.1,0.3,0.2,0.5,0.2c0.3,0,0.6-0.1,0.8-0.4l12.3-18.4c0.1-0.2,0.2-0.4,0.2-0.6v0
			c0-0.2-0.1-0.4-0.2-0.6L15.9,39c-0.3-0.4-0.9-0.6-1.3-0.3C14.1,39,14,39.6,14.3,40l5.3,8.3l-12.9,0l7-10.4l12.2-18.2
			c0.1-0.1,0.2-0.2,0.2-0.3l0-0.1C26.4,18.8,26.2,18.4,25.8,18.1z M20.8,50.2l3.3,5.1l-3.5,5.2l-15.3,0l-3.3-5.1l3.5-5.2L20.8,50.2z
			 M20.7,24.1l-15.3,0L2,18.8l3.4-5l15.4,0l3.3,5.2L20.7,24.1z"/>
	</g>
</g>
</svg>
